<mxfile host="Electron" modified="2024-06-28T09:27:05.945Z" agent="Mozilla/5.0 (X11; Linux x86_64) AppleWebKit/537.36 (KHTML, like Gecko) draw.io/24.6.1 Chrome/124.0.6367.207 Electron/30.0.6 Safari/537.36" etag="EGrGm5WgN3I349GuJWy-" version="24.6.1" type="device">
  <diagram id="Rb-xx0nRkKV6fZcm5l0x" name="Page-1">
    <mxGraphModel dx="1434" dy="839" grid="1" gridSize="10" guides="1" tooltips="1" connect="1" arrows="1" fold="1" page="1" pageScale="1" pageWidth="827" pageHeight="1169" math="0" shadow="0">
      <root>
        <mxCell id="0" />
        <mxCell id="1" parent="0" />
        <mxCell id="MTE__1G_FNOwgJFrXbpS-2" value="Service-A&lt;br&gt;1&lt;br&gt;url=http://serviceA-1" style="ellipse;whiteSpace=wrap;html=1;aspect=fixed;" parent="1" vertex="1">
          <mxGeometry x="600" y="280" width="200" height="200" as="geometry" />
        </mxCell>
        <mxCell id="MTE__1G_FNOwgJFrXbpS-6" style="rounded=0;orthogonalLoop=1;jettySize=auto;html=1;exitX=1;exitY=0.5;exitDx=0;exitDy=0;entryX=0;entryY=0.5;entryDx=0;entryDy=0;startArrow=classic;startFill=1;" parent="1" source="MTE__1G_FNOwgJFrXbpS-5" target="MTE__1G_FNOwgJFrXbpS-2" edge="1">
          <mxGeometry relative="1" as="geometry" />
        </mxCell>
        <mxCell id="MTE__1G_FNOwgJFrXbpS-5" value="Service Appelant&lt;br&gt;&lt;br&gt;&lt;div&gt;serviceA.url=http://serviceA-1&lt;/div&gt;" style="ellipse;whiteSpace=wrap;html=1;aspect=fixed;" parent="1" vertex="1">
          <mxGeometry x="40" y="280" width="200" height="200" as="geometry" />
        </mxCell>
      </root>
    </mxGraphModel>
  </diagram>
</mxfile>
